<svg xmlns="http://www.w3.org/2000/svg" viewBox="0 0 129.67 22.4"><defs><style>.cls-1{fill:#fff;}.cls-2{fill:#40dddf;}</style></defs><title>mainLogoWhite</title><g id="Layer_2" data-name="Layer 2"><g id="Layer_1-2" data-name="Layer 1"><path class="cls-1" d="M61.47,18V6.57a.17.17,0,0,0-.32-.08L55,15.11a.6.6,0,0,1-.51.29h-.08a.58.58,0,0,1-.51-.29L47.75,6.49a.17.17,0,0,0-.32.08V18a.59.59,0,0,1-.59.59h0a.58.58,0,0,1-.59-.59V4.43A.76.76,0,0,1,47,3.66h0a.76.76,0,0,1,.66.38l6.29,8.9a.59.59,0,0,0,1,0L61.25,4a.75.75,0,0,1,.66-.38h0a.77.77,0,0,1,.77.77V18a.58.58,0,0,1-.59.59h0A.58.58,0,0,1,61.47,18Z"/><path class="cls-1" d="M68.66,18.6a.57.57,0,0,1-.57-.57V4.2a.54.54,0,0,1,.54-.54h.12a.55.55,0,0,1,.55.54V17.51h9.51a.54.54,0,0,1,.54.54h0a.54.54,0,0,1-.54.55Z"/><path class="cls-1" d="M114,14.77a3.23,3.23,0,0,1-.36,1.51,4,4,0,0,1-1,1.23,4.46,4.46,0,0,1-1.45.81,5.11,5.11,0,0,1-1.75.3H102.4a.78.78,0,0,1-.82-.73V4.49a.78.78,0,0,1,.82-.73h7A3.57,3.57,0,0,1,111,4.1a3.72,3.72,0,0,1,1.21.87A3.84,3.84,0,0,1,113,6.18a3.67,3.67,0,0,1,.27,1.37,3.59,3.59,0,0,1-.64,2.07A3.65,3.65,0,0,1,110.86,11a4.2,4.2,0,0,1,2.28,1.41A3.6,3.6,0,0,1,114,14.77ZM102.79,5v5.49a.15.15,0,0,0,.15.14h6a4.68,4.68,0,0,0,1.34-.29,3.38,3.38,0,0,0,1-.66,2.28,2.28,0,0,0,.57-.85,2.7,2.7,0,0,0,.24-1.1,2.87,2.87,0,0,0-.23-1.14,3.15,3.15,0,0,0-.61-.95,3,3,0,0,0-.94-.64,3,3,0,0,0-1.21-.13h-6.16A.14.14,0,0,0,102.79,5Zm10,9.65a2.85,2.85,0,0,0-.24-1.14,2.43,2.43,0,0,0-.57-.88,2.54,2.54,0,0,0-1-.68,5.91,5.91,0,0,0-1.34-.25h-6.68a.15.15,0,0,0-.15.14v5.55a.15.15,0,0,0,.15.14h6.52a4.64,4.64,0,0,0,1.51-.25,2.6,2.6,0,0,0,.92-.63,2.85,2.85,0,0,0,.63-.87A2.63,2.63,0,0,0,112.78,14.62Z"/><path class="cls-1" d="M128.51,5.74a.59.59,0,0,1-.82.1,8,8,0,0,0-7.82-.2,2.49,2.49,0,0,0-1.07,2,2.32,2.32,0,0,0,.29,1.2,2.12,2.12,0,0,0,.89.8,6.58,6.58,0,0,0,1.54.57c.62.16,1.36.32,2.22.47s1.74.35,2.46.55a7.66,7.66,0,0,1,1.86.77,3.32,3.32,0,0,1,1.19,1.13,3,3,0,0,1,.42,1.65,3.27,3.27,0,0,1-.44,1.71A3.74,3.74,0,0,1,128,17.75a6.22,6.22,0,0,1-1.89.74,11,11,0,0,1-2.46.25,10.29,10.29,0,0,1-6.31-1.94.44.44,0,0,1-.09-.63l0,0a.58.58,0,0,1,.8-.11,7.31,7.31,0,0,0,2.12,1,10.66,10.66,0,0,0,3.58.45,6.61,6.61,0,0,0,3.46-.71,2,2,0,0,0,1.16-1.86,2.25,2.25,0,0,0-.32-1.24,2.67,2.67,0,0,0-1-.89,7.18,7.18,0,0,0-1.65-.65c-.65-.18-1.43-.35-2.31-.52s-1.7-.35-2.38-.53a6.93,6.93,0,0,1-1.75-.72,3,3,0,0,1-1.07-1,3.06,3.06,0,0,1-.35-1.53A3.48,3.48,0,0,1,118,6a3.87,3.87,0,0,1,1.22-1.3,5.69,5.69,0,0,1,1.87-.81,10.13,10.13,0,0,1,2.42-.27,9.06,9.06,0,0,1,2.92.43,7.19,7.19,0,0,1,2,1,.44.44,0,0,1,.09.62Z"/><path class="cls-1" d="M97.18,17.78,90.51,4A.58.58,0,0,0,90,3.66h-.22a.59.59,0,0,0-.54.36L82.55,17.78a.59.59,0,0,0,.54.82.58.58,0,0,0,.54-.36L89.52,5.93a.37.37,0,0,1,.68,0l5.87,12.3a.58.58,0,0,0,.54.36h0A.59.59,0,0,0,97.18,17.78Z"/><circle class="cls-2" cx="89.86" cy="14.58" r="1.72"/><path class="cls-2" d="M1.94,22.4A1.94,1.94,0,0,1,.57,19.09L19.09.57a1.94,1.94,0,1,1,2.74,2.74L3.31,21.83A1.92,1.92,0,0,1,1.94,22.4Z"/><path class="cls-2" d="M15.12,22.4a1.94,1.94,0,0,1-1.37-3.31L32.27.57a1.95,1.95,0,0,1,3.32,1.37V20.46a1.94,1.94,0,0,1-3.88,0V6.62L16.5,21.83A2,2,0,0,1,15.12,22.4Z"/></g></g></svg>