<svg xmlns="http://www.w3.org/2000/svg" viewBox="11265.049 808.38 150 25.908"><defs><style>.a{fill:#57657a;}.b{fill:#40dddf;}</style></defs><g transform="translate(4657 -145)"><path class="a" d="M326.016,40.993V27.764a.2.2,0,0,0-.364-.1l-7.109,9.97a.676.676,0,0,1-.589.329h-.1a.676.676,0,0,1-.589-.329l-7.109-9.97a.2.2,0,0,0-.364.1V40.993a.677.677,0,0,1-.676.676h-.035a.677.677,0,0,1-.676-.676V25.284a.888.888,0,0,1,.884-.884h0a.9.9,0,0,1,.763.433l7.282,10.282a.683.683,0,0,0,1.179,0l7.282-10.282a.866.866,0,0,1,.763-.433h0a.888.888,0,0,1,.884.884V40.993a.677.677,0,0,1-.676.676h-.052A.67.67,0,0,1,326.016,40.993Z" transform="translate(6353.125 933.215)"/><path class="a" d="M454.859,41.687a.659.659,0,0,1-.659-.659v-16a.622.622,0,0,1,.624-.624h.139a.622.622,0,0,1,.624.624v15.4H466.58a.622.622,0,0,1,.624.624h0a.622.622,0,0,1-.624.624H454.859Z" transform="translate(6232.604 933.215)"/><path class="a" d="M691.874,37.826a3.778,3.778,0,0,1-.416,1.751A4.645,4.645,0,0,1,690.331,41a5.279,5.279,0,0,1-1.682.936,6.08,6.08,0,0,1-2.029.347h-8.167a.909.909,0,0,1-.954-.832V25.932a.9.9,0,0,1,.954-.832H686.6a4.254,4.254,0,0,1,1.838.381,4.406,4.406,0,0,1,1.4,1.006,4.578,4.578,0,0,1,.884,1.4,4.26,4.26,0,0,1,.312,1.578,4.114,4.114,0,0,1-.745,2.393,4.233,4.233,0,0,1-2.063,1.6,4.984,4.984,0,0,1,2.653,1.63A4.224,4.224,0,0,1,691.874,37.826ZM678.922,26.5V32.85a.171.171,0,0,0,.173.156h6.953a5.113,5.113,0,0,0,1.543-.329,4,4,0,0,0,1.144-.763,2.681,2.681,0,0,0,.659-.971,3.057,3.057,0,0,0,.277-1.283,3.372,3.372,0,0,0-.26-1.318,3.6,3.6,0,0,0-.711-1.092,3.06,3.06,0,0,0-1.092-.746,3.342,3.342,0,0,0-1.4-.156h-7.126A.155.155,0,0,0,678.922,26.5Zm11.547,11.149a3.212,3.212,0,0,0-.278-1.318,3.048,3.048,0,0,0-.659-1.023,2.815,2.815,0,0,0-1.162-.78,6.746,6.746,0,0,0-1.56-.295H679.1a.16.16,0,0,0-.173.156v6.415a.171.171,0,0,0,.173.156h7.525a4.826,4.826,0,0,0,1.751-.295,2.885,2.885,0,0,0,1.058-.728,3.47,3.47,0,0,0,.728-1.006A2.749,2.749,0,0,0,690.469,37.653Z" transform="translate(6048.021 932.636)"/><path class="a" d="M794.7,26.81a.678.678,0,0,1-.936.1,7.285,7.285,0,0,0-4.872-1.3,7.388,7.388,0,0,0-4.179,1.058,2.9,2.9,0,0,0-1.231,2.358,2.651,2.651,0,0,0,.329,1.387,2.7,2.7,0,0,0,1.023.936,8.659,8.659,0,0,0,1.786.659c.728.191,1.578.364,2.566.537,1.058.191,2.011.416,2.861.642a7.944,7.944,0,0,1,2.15.884,3.96,3.96,0,0,1,1.37,1.3,3.661,3.661,0,0,1,.485,1.907,3.8,3.8,0,0,1-.5,1.977,4.287,4.287,0,0,1-1.422,1.422,7.487,7.487,0,0,1-2.2.867,13.025,13.025,0,0,1-2.844.295,11.972,11.972,0,0,1-7.3-2.237.507.507,0,0,1-.1-.728l.017-.035a.7.7,0,0,1,.936-.121,8.4,8.4,0,0,0,2.445,1.162,12.139,12.139,0,0,0,4.144.52,7.711,7.711,0,0,0,4.005-.815,2.35,2.35,0,0,0,1.352-2.15A2.689,2.689,0,0,0,794.219,36a2.893,2.893,0,0,0-1.144-1.023,8.258,8.258,0,0,0-1.907-.746c-.763-.208-1.647-.416-2.67-.607q-1.561-.286-2.757-.624a8.082,8.082,0,0,1-2.011-.815,3.15,3.15,0,0,1-1.647-2.965,4.227,4.227,0,0,1,.5-2.063,4.647,4.647,0,0,1,1.4-1.508,6.508,6.508,0,0,1,2.167-.936,11.658,11.658,0,0,1,2.791-.312,10.665,10.665,0,0,1,3.381.5,8.009,8.009,0,0,1,2.289,1.2.534.534,0,0,1,.087.711Z" transform="translate(5961.992 933.215)"/><path class="a" d="M567.426,40.733l-7.7-15.917a.685.685,0,0,0-.624-.416h-.243a.659.659,0,0,0-.624.416l-7.7,15.917a.685.685,0,0,0,.624.954.659.659,0,0,0,.624-.416L558.6,27.035a.423.423,0,0,1,.78,0L566.16,41.27a.659.659,0,0,0,.624.416h.035A.683.683,0,0,0,567.426,40.733Z" transform="translate(6153.016 933.215)"/><ellipse class="b" cx="1.994" cy="1.994" rx="1.994" ry="1.994" transform="translate(6709.987 968.261)"/><path class="b" d="M2.216,25.883A2.245,2.245,0,0,1,.638,22.051L22.051.638a2.244,2.244,0,0,1,3.173,3.173L3.811,25.224A2.2,2.2,0,0,1,2.216,25.883Z" transform="translate(6608.074 953.405)"/><path class="b" d="M90.216,25.916a2.245,2.245,0,0,1-1.578-3.832L110.051.671a2.246,2.246,0,0,1,3.832,1.6V23.679a2.237,2.237,0,0,1-4.473,0v-16L91.794,25.257A2.163,2.163,0,0,1,90.216,25.916Z" transform="translate(6535.331 953.372)"/></g></svg>