<svg xmlns="http://www.w3.org/2000/svg" viewBox="0 0 233.15 233.15"><defs><style>.cls-1{fill:#40dddf;}.cls-2{fill:#1c164e;}</style></defs><title>favicon.svg</title><g id="Layer_2" data-name="Layer 2"><g id="Layer_1-2" data-name="Layer 1"><path class="cls-1" d="M116.57,6A110.58,110.58,0,1,1,6,116.57,110.58,110.58,0,0,1,116.57,6m0-6A116.57,116.57,0,0,0,34.14,199,116.57,116.57,0,1,0,199,34.14,115.84,115.84,0,0,0,116.57,0Z"/><circle class="cls-2" cx="116.57" cy="116.57" r="110.57"/><path class="cls-1" d="M51.66,154a6.48,6.48,0,0,1-4.57-11l61.8-61.81A6.47,6.47,0,0,1,118,90.25l-61.8,61.8A6.48,6.48,0,0,1,51.66,154Z"/><path class="cls-1" d="M95.66,154a6.48,6.48,0,0,1-4.58-11l61.81-61.81a6.48,6.48,0,0,1,11.05,4.58v61.8a6.48,6.48,0,1,1-12.95,0V101.29l-50.75,50.76A6.48,6.48,0,0,1,95.66,154Z"/></g></g></svg>