<svg xmlns="http://www.w3.org/2000/svg" viewBox="0 0 90.67 15.66"><defs><style>.cls-1{fill:#40DDDF;}</style></defs><title>LogoWhite</title><g id="Layer_2" data-name="Layer 2"><g id="content"><path class="cls-1" d="M43,12.59v-8a.12.12,0,0,0-.22-.07l-4.3,6a.42.42,0,0,1-.36.21H38a.4.4,0,0,1-.35-.21l-4.3-6a.13.13,0,0,0-.23.07v8a.41.41,0,0,1-.41.42h0a.41.41,0,0,1-.41-.42V3.09a.53.53,0,0,1,.53-.53h0a.55.55,0,0,1,.47.26L37.72,9a.41.41,0,0,0,.71,0l4.4-6.22a.53.53,0,0,1,.46-.26h0a.54.54,0,0,1,.54.53v9.5a.42.42,0,0,1-.41.42h0A.42.42,0,0,1,43,12.59Z"/><path class="cls-1" d="M48,13a.4.4,0,0,1-.4-.4V2.94A.38.38,0,0,1,48,2.56h.08a.38.38,0,0,1,.38.38v9.3h6.66a.38.38,0,0,1,.38.38h0a.39.39,0,0,1-.38.39Z"/><path class="cls-1" d="M79.7,10.33a2.27,2.27,0,0,1-.25,1.06,2.64,2.64,0,0,1-.68.85,2.86,2.86,0,0,1-1,.57,3.51,3.51,0,0,1-1.22.21H71.6a.55.55,0,0,1-.57-.51V3.14a.55.55,0,0,1,.57-.51h4.92a2.51,2.51,0,0,1,1.11.24,2.73,2.73,0,0,1,.85.6,2.79,2.79,0,0,1,.54.85,2.73,2.73,0,0,1,.19,1,2.51,2.51,0,0,1-.45,1.45,2.57,2.57,0,0,1-1.25,1,3,3,0,0,1,1.6,1A2.49,2.49,0,0,1,79.7,10.33ZM71.87,3.48V7.31a.1.1,0,0,0,.11.1h4.21a3.22,3.22,0,0,0,.93-.2,2.25,2.25,0,0,0,.69-.46,1.71,1.71,0,0,0,.4-.59,2,2,0,0,0,.17-.78,2.15,2.15,0,0,0-.16-.8,2.37,2.37,0,0,0-.43-.65,2,2,0,0,0-.66-.46,2.07,2.07,0,0,0-.84-.09H72A.1.1,0,0,0,71.87,3.48Zm7,6.74a2,2,0,0,0-.17-.79,1.88,1.88,0,0,0-1.1-1.09,4.36,4.36,0,0,0-.94-.18H72a.11.11,0,0,0-.11.1v3.88a.1.1,0,0,0,.11.09h4.56a3,3,0,0,0,1-.17A2.13,2.13,0,0,0,78.67,11,1.67,1.67,0,0,0,78.86,10.22Z"/><path class="cls-1" d="M89.86,4a.4.4,0,0,1-.57.07,4.4,4.4,0,0,0-2.94-.78,4.45,4.45,0,0,0-2.53.64,1.73,1.73,0,0,0-.75,1.43,1.62,1.62,0,0,0,.2.83,1.55,1.55,0,0,0,.62.56,4.73,4.73,0,0,0,1.08.4c.44.11,1,.22,1.55.33a15.48,15.48,0,0,1,1.73.39,5.19,5.19,0,0,1,1.3.53,2.43,2.43,0,0,1,.83.79,2.18,2.18,0,0,1,.29,1.15,2.33,2.33,0,0,1-.31,1.2,2.44,2.44,0,0,1-.86.86,4.45,4.45,0,0,1-1.33.52,7.57,7.57,0,0,1-1.72.18A7.27,7.27,0,0,1,82,11.75a.31.31,0,0,1-.06-.44v0a.41.41,0,0,1,.56-.07,5.47,5.47,0,0,0,1.48.7,7.39,7.39,0,0,0,2.51.31A4.7,4.7,0,0,0,89,11.74a1.4,1.4,0,0,0,.81-1.3,1.61,1.61,0,0,0-.22-.87A1.91,1.91,0,0,0,88.86,9a4.76,4.76,0,0,0-1.15-.45c-.46-.13-1-.25-1.62-.37s-1.19-.24-1.67-.37a4.92,4.92,0,0,1-1.22-.5,2,2,0,0,1-.74-.72,2.07,2.07,0,0,1-.25-1.07,2.4,2.4,0,0,1,.31-1.24,2.57,2.57,0,0,1,.85-.92,3.82,3.82,0,0,1,1.31-.56,6.83,6.83,0,0,1,1.69-.19,6.44,6.44,0,0,1,2,.3,5,5,0,0,1,1.38.72.3.3,0,0,1,.07.43Z"/><path class="cls-1" d="M68,12.43,63.29,2.81a.41.41,0,0,0-.38-.25h-.15a.42.42,0,0,0-.38.25l-4.66,9.62a.42.42,0,0,0,.38.58.4.4,0,0,0,.38-.26l4.12-8.6a.25.25,0,0,1,.47,0l4.1,8.6a.42.42,0,0,0,.38.26h0A.42.42,0,0,0,68,12.43Z"/><circle class="cls-1" cx="62.84" cy="10.2" r="1.2"/><path class="cls-1" d="M1.36,15.66a1.35,1.35,0,0,1-1-2.31L13.35.4a1.36,1.36,0,0,1,1.92,1.92l-13,13A1.35,1.35,0,0,1,1.36,15.66Z"/><path class="cls-1" d="M10.58,15.66a1.35,1.35,0,0,1-1-2.31L22.57.4a1.35,1.35,0,0,1,2.31,1v13a1.36,1.36,0,0,1-2.71,0V4.63L11.53,15.27A1.35,1.35,0,0,1,10.58,15.66Z"/></g></g></svg>
