<svg xmlns="http://www.w3.org/2000/svg" xmlns:xlink="http://www.w3.org/1999/xlink" viewBox="0 0 36.77 23.14"><defs><style>.cls-1{fill:url(#linear-gradient);}.cls-2{fill:url(#linear-gradient-2);}</style><linearGradient id="linear-gradient" x1="-176.99" y1="-10.07" x2="-176.99" y2="40.81" gradientTransform="translate(188.56 -10.39)" gradientUnits="userSpaceOnUse"><stop offset="0" stop-color="#43d365"/><stop offset="0.31" stop-color="#3dd8b7"/><stop offset="0.68" stop-color="#27a7ff"/><stop offset="1" stop-color="#5668ff"/></linearGradient><linearGradient id="linear-gradient-2" x1="-163.37" y1="-10.07" x2="-163.37" y2="40.81" xlink:href="#linear-gradient"/></defs><title>secondaryLogo</title><g id="Layer_2" data-name="Layer 2"><g id="Layer_1-2" data-name="Layer 1"><path class="cls-1" d="M2,23.14A2,2,0,0,1,.59,19.72L19.72.59a2,2,0,1,1,2.84,2.83L3.42,22.56A2,2,0,0,1,2,23.14Z"/><path class="cls-2" d="M15.63,23.14a2,2,0,0,1-1.42-.58,2,2,0,0,1,0-2.84L33.35.59A2,2,0,0,1,36.77,2V21.14a2,2,0,0,1-4,0V6.84L17,22.56A2,2,0,0,1,15.63,23.14Z"/></g></g></svg>